<svg id="visual" viewBox="0 0 600 900" width="600" height="900" xmlns="http://www.w3.org/2000/svg" xmlns:xlink="http://www.w3.org/1999/xlink" version="1.1"><path d="M0 100L10 106C20 112 40 124 60 137.5C80 151 100 166 120 176.5C140 187 160 193 180 185.5C200 178 220 157 240 163C260 169 280 202 300 212.5C320 223 340 211 360 196C380 181 400 163 420 166C440 169 460 193 480 202C500 211 520 205 540 188.5C560 172 580 145 590 131.5L600 118L600 0L590 0C580 0 560 0 540 0C520 0 500 0 480 0C460 0 440 0 420 0C400 0 380 0 360 0C340 0 320 0 300 0C280 0 260 0 240 0C220 0 200 0 180 0C160 0 140 0 120 0C100 0 80 0 60 0C40 0 20 0 10 0L0 0Z" fill="#6198ff"></path><path d="M0 595L10 557.5C20 520 40 445 60 421C80 397 100 424 120 458.5C140 493 160 535 180 529C200 523 220 469 240 451C260 433 280 451 300 466C320 481 340 493 360 484C380 475 400 445 420 436C440 427 460 439 480 463C500 487 520 523 540 502C560 481 580 403 590 364L600 325L600 116L590 129.5C580 143 560 170 540 186.5C520 203 500 209 480 200C460 191 440 167 420 164C400 161 380 179 360 194C340 209 320 221 300 210.5C280 200 260 167 240 161C220 155 200 176 180 183.5C160 191 140 185 120 174.5C100 164 80 149 60 135.5C40 122 20 110 10 104L0 98Z" fill="#3c80ff"></path><path d="M0 649L10 614.5C20 580 40 511 60 502C80 493 100 544 120 586C140 628 160 661 180 646C200 631 220 568 240 541C260 514 280 523 300 545.5C320 568 340 604 360 598C380 592 400 544 420 526C440 508 460 520 480 539.5C500 559 520 586 540 565C560 544 580 475 590 440.5L600 406L600 323L590 362C580 401 560 479 540 500C520 521 500 485 480 461C460 437 440 425 420 434C400 443 380 473 360 482C340 491 320 479 300 464C280 449 260 431 240 449C220 467 200 521 180 527C160 533 140 491 120 456.5C100 422 80 395 60 419C40 443 20 518 10 555.5L0 593Z" fill="#0066ff"></path><path d="M0 811L10 797.5C20 784 40 757 60 760C80 763 100 796 120 814C140 832 160 835 180 836.5C200 838 220 838 240 820C260 802 280 766 300 757C320 748 340 766 360 782.5C380 799 400 814 420 806.5C440 799 460 769 480 754C500 739 520 739 540 746.5C560 754 580 769 590 776.5L600 784L600 404L590 438.5C580 473 560 542 540 563C520 584 500 557 480 537.5C460 518 440 506 420 524C400 542 380 590 360 596C340 602 320 566 300 543.5C280 521 260 512 240 539C220 566 200 629 180 644C160 659 140 626 120 584C100 542 80 491 60 500C40 509 20 578 10 612.5L0 647Z" fill="#0059dd"></path><path d="M0 901L10 901C20 901 40 901 60 901C80 901 100 901 120 901C140 901 160 901 180 901C200 901 220 901 240 901C260 901 280 901 300 901C320 901 340 901 360 901C380 901 400 901 420 901C440 901 460 901 480 901C500 901 520 901 540 901C560 901 580 901 590 901L600 901L600 782L590 774.5C580 767 560 752 540 744.5C520 737 500 737 480 752C460 767 440 797 420 804.5C400 812 380 797 360 780.5C340 764 320 746 300 755C280 764 260 800 240 818C220 836 200 836 180 834.5C160 833 140 830 120 812C100 794 80 761 60 758C40 755 20 782 10 795.5L0 809Z" fill="#004cbb"></path></svg>